<svg width="30" height="30" viewBox="0 0 30 30" fill="none" xmlns="http://www.w3.org/2000/svg">
<g clip-path="url(#clip0_27_248)">
<path d="M11.7149 23.1274C12.0909 23.3754 12.3829 23.6994 12.5909 24.0994C12.8069 24.4914 12.9149 24.9114 12.9149 25.3594C12.9149 25.9034 12.7789 26.3954 12.5069 26.8354C12.2349 27.2674 11.8509 27.6114 11.3549 27.8674C10.8669 28.1154 10.3109 28.2394 9.68691 28.2394C9.07091 28.2394 8.51891 28.1154 8.03091 27.8674C7.55091 27.6194 7.17491 27.2794 6.90291 26.8474C6.63091 26.4154 6.49491 25.9354 6.49491 25.4074C6.49491 25.3114 6.51091 25.1834 6.54291 25.0234H8.52291C8.50691 25.1514 8.49891 25.2194 8.49891 25.2274C8.49891 25.5794 8.61091 25.8714 8.83491 26.1034C9.05891 26.3274 9.34691 26.4394 9.69891 26.4394C10.0509 26.4394 10.3389 26.3274 10.5629 26.1034C10.7949 25.8794 10.9109 25.5874 10.9109 25.2274C10.9109 24.8834 10.7949 24.5994 10.5629 24.3754C10.3389 24.1434 10.0549 24.0274 9.71091 24.0274H9.09891V22.4314H9.71091C9.98291 22.4314 10.2029 22.3474 10.3709 22.1794C10.5469 22.0034 10.6349 21.7754 10.6349 21.4954C10.6349 21.2234 10.5469 20.9994 10.3709 20.8234C10.1949 20.6474 9.97091 20.5594 9.69891 20.5594C9.43491 20.5594 9.21491 20.6474 9.03891 20.8234C8.86291 20.9994 8.77491 21.2234 8.77491 21.4954C8.77491 21.5594 8.77891 21.6074 8.78691 21.6394H6.93891C6.93091 21.5914 6.92691 21.4914 6.92691 21.3394C6.92691 20.8834 7.04291 20.4714 7.27491 20.1034C7.51491 19.7274 7.84291 19.4354 8.25891 19.2274C8.68291 19.0114 9.15891 18.9034 9.68691 18.9034C10.2309 18.9034 10.7149 19.0114 11.1389 19.2274C11.5629 19.4434 11.8909 19.7434 12.1229 20.1274C12.3629 20.5034 12.4829 20.9274 12.4829 21.3994C12.4829 21.7354 12.4149 22.0514 12.2789 22.3474C12.1509 22.6434 11.9629 22.9034 11.7149 23.1274ZM22.7268 28.0714H21.1548L21.1428 26.8954C20.8148 27.3274 20.4068 27.6594 19.9188 27.8914C19.4308 28.1234 18.8828 28.2394 18.2748 28.2394C17.3948 28.2394 16.6108 28.0394 15.9228 27.6394C15.2428 27.2314 14.7108 26.6714 14.3268 25.9594C13.9508 25.2474 13.7628 24.4474 13.7628 23.5594C13.7628 22.6554 13.9548 21.8514 14.3388 21.1474C14.7228 20.4434 15.2628 19.8954 15.9588 19.5034C16.6548 19.1034 17.4508 18.9034 18.3468 18.9034C19.4428 18.9034 20.3748 19.1754 21.1428 19.7194C21.9108 20.2554 22.4268 21.0034 22.6908 21.9634H20.4468C20.2948 21.5954 20.0428 21.3034 19.6908 21.0874C19.3468 20.8634 18.9108 20.7514 18.3828 20.7514C17.6068 20.7514 16.9948 21.0034 16.5468 21.5074C16.1068 22.0114 15.8868 22.6994 15.8868 23.5714C15.8868 24.4514 16.1068 25.1514 16.5468 25.6714C16.9868 26.1834 17.5988 26.4394 18.3828 26.4394C18.9908 26.4394 19.5028 26.2914 19.9188 25.9954C20.3348 25.6914 20.6228 25.2754 20.7828 24.7474H18.5868V23.2354H22.7268V28.0714Z" fill="#4F008C"/>
<path d="M21.7863 15.5035C19.8001 14.3892 17.5242 13.7571 15.1035 13.7571C12.6828 13.7571 10.407 14.3892 8.42078 15.5035" stroke="#4F008C" stroke-width="1.45" stroke-miterlimit="10"/>
<path d="M25.0139 10.8643C22.107 9.09644 18.7242 8.06787 15.1139 8.06787C11.5035 8.06787 8.12076 9.08573 5.21387 10.8643" stroke="#4F008C" stroke-width="1.45" stroke-miterlimit="10"/>
<path d="M28.2311 6.22497C24.4138 3.79283 19.9242 2.37854 15.1138 2.37854C10.3035 2.38925 5.80348 3.79283 1.99658 6.22497" stroke="#4F008C" stroke-width="1.45" stroke-miterlimit="10"/>
</g>
<defs>
<clipPath id="clip0_27_248">
<rect width="30" height="30" fill="white"/>
</clipPath>
</defs>
</svg>
