<svg width="23" height="31" viewBox="0 0 23 31" fill="none" xmlns="http://www.w3.org/2000/svg">
<g clip-path="url(#clip0_27_255)">
<path d="M11.5673 1.44812C14.4726 1.44812 16.8219 3.85508 16.8219 6.81115C16.8219 9.76722 14.4636 12.1742 11.5673 12.1742C8.67103 12.1742 6.31274 9.76722 6.31274 6.81115C6.31274 3.85508 8.66206 1.44812 11.5673 1.44812Z" stroke="#4F008C" stroke-width="1.45" stroke-miterlimit="10"/>
<path d="M22.3454 30.112H5.00352C2.60041 30.112 0.64563 28.126 0.64563 25.6642V19.0382C0.64563 16.5855 2.59144 14.5903 5.00352 14.5903H17.9875C20.3907 14.5903 22.3454 16.5763 22.3454 19.0382V30.1028V30.112Z" stroke="#4F008C" stroke-width="1.45" stroke-miterlimit="10"/>
<path d="M7.84607 19.0289H15.1541" stroke="#4F008C" stroke-width="1.45" stroke-miterlimit="10"/>
</g>
<defs>
<clipPath id="clip0_27_255">
<rect width="23" height="30" fill="white" transform="translate(0 0.780029)"/>
</clipPath>
</defs>
</svg>
